<svg width="24" height="24" viewBox="0 0 24 24" fill="none" xmlns="http://www.w3.org/2000/svg">
<g clip-path="url(#clip0_4868_4192)">
<path d="M23.2848 0.927734H0.715332V5.46453H23.2848V0.927734Z" fill="#CDCECF"/>
<path d="M23.2846 6.18001H0.715359C0.32025 6.18001 0 5.85971 0 5.46465V0.927762C0 0.532746 0.32025 0.212402 0.715359 0.212402H23.2846C23.6798 0.212402 24 0.532746 24 0.927762V5.4647C24 5.85976 23.6798 6.18001 23.2846 6.18001ZM1.43072 4.74934H22.5693V1.64312H1.43072V4.74934Z" fill="#CDCECF"/>
<path d="M23.2848 14.9838H10.7305C10.3354 14.9838 10.0151 14.6635 10.0151 14.2685C10.0151 13.8734 10.3354 13.5531 10.7305 13.5531H22.5695V10.4468H10.7305C10.3354 10.4468 10.0151 10.1265 10.0151 9.73147C10.0151 9.33646 10.3354 9.01611 10.7305 9.01611H23.2848C23.68 9.01611 24.0002 9.33646 24.0002 9.73147V14.2685C24.0002 14.6635 23.68 14.9838 23.2848 14.9838Z" fill="#CDCECF"/>
<path d="M23.2848 18.5356H0.715332V23.0724H23.2848V18.5356Z" fill="#CDCECF"/>
<path d="M23.2846 23.788H0.715359C0.32025 23.788 0 23.4676 0 23.0726V18.5357C0 18.1407 0.32025 17.8203 0.715359 17.8203H23.2846C23.6798 17.8203 24 18.1407 24 18.5357V23.0726C24 23.4676 23.6798 23.788 23.2846 23.788ZM1.43072 22.3573H22.5693V19.251H1.43072V22.3573Z" fill="#CDCECF"/>
<path d="M7.44229 12.7154H3.86282C3.46771 12.7154 3.14746 12.395 3.14746 12C3.14746 11.605 3.46771 11.2847 3.86282 11.2847H7.44229C7.8374 11.2847 8.15765 11.605 8.15765 12C8.15765 12.3951 7.8374 12.7154 7.44229 12.7154Z" fill="#CDCECF"/>
<path d="M4.57825 9.76953L0.715332 11.9998L4.57825 14.2301V9.76953Z" fill="#CDCECF"/>
<path d="M4.57828 14.9454C4.45472 14.9454 4.33125 14.9135 4.22063 14.8496L0.357656 12.6193C0.136359 12.4916 0 12.2554 0 11.9999C0 11.7444 0.136359 11.5082 0.357656 11.3804L4.22058 9.15007C4.44192 9.02224 4.71459 9.02224 4.93594 9.15007C5.15728 9.27785 5.29359 9.51405 5.29359 9.76957V14.2301C5.29359 14.4856 5.15723 14.7218 4.93594 14.8496C4.82527 14.9135 4.7018 14.9454 4.57828 14.9454ZM2.14608 11.9999L3.86292 12.9911V11.0086L2.14608 11.9999Z" fill="#CDCECF"/>
</g>
<defs>
<clipPath id="clip0_4868_4192">
<rect width="24" height="24" fill="white"/>
</clipPath>
</defs>
</svg>
