<svg width="256" height="252" fill="none" xmlns="http://www.w3.org/2000/svg"><path opacity=".1" d="M152.413.195c-1.365.387-2.506 2.464-2.221 4.031.306 1.65 1.243 2.749 2.546 3.014l.612.122-.041 43.162-.061 43.183-.958-.062-.977-.06v6.759h-7.945l-.04-3.319-.061-3.298-1.121-.02-1.12-.02-.061-22.966c-.041-22.68-.041-22.946.366-23.455.55-.712.876-2.015.713-2.89-.203-1.161-1.018-2.362-1.853-2.77-.998-.468-3.015-.346-3.789.204-1.324.977-1.833 3.136-1.12 4.805.407 1.018 1.548 1.832 2.688 1.975l.917.102-.041 22.476-.061 22.498-1.731.04-1.732.02-.061 3.3-.04 3.318H127.297v-6.617h-3.382l-.101-14.659-.102-14.659-11.041-.06-11.06-.042V33.565l.57-.856c.468-.733.55-1.058.55-2.3 0-1.283-.061-1.547-.57-2.199-.774-1.018-1.528-1.364-2.954-1.364-.917 0-1.365.122-1.894.468-1.365.896-1.997 3.115-1.324 4.683.346.835 1.548 1.893 2.342 2.077l.632.142V66.343h22.61v27.384H119.434l-.061 3.298-.041 3.319h-7.944l-.041-3.319-.061-3.298h-1.935v-17H83.543l-.49-.53c-.753-.814-1.486-1.1-2.79-1.1-.916 0-1.365.103-1.894.47-2.24 1.506-2.119 5.15.224 6.392 2.22 1.18 4.848-.061 5.235-2.484l.122-.712H106.5l-.04 7.451-.062 7.472-1.425.02-1.426.02-.061 3.3-.041 3.318H95.5l-.041-3.319-.061-3.298h-.611l-.611-.02L94.115 90l-.041-3.705H49.566l-1.018-.53c-2.506-1.282-5.195.387-5.195 3.237 0 1.263.387 2.138 1.284 2.932 1.894 1.67 5.01.652 5.683-1.853l.244-.936H91.446l-.061 2.26-.061 2.26-1.935.02-1.935.04-.061 3.3-.041 3.318h-9.778v14.048H70.852v1.629H28.545l-.673-.835c-1.914-2.382-5.54-1.649-6.314 1.282-.428 1.568.204 3.238 1.609 4.174.53.346.978.468 1.854.468 1.364 0 2.26-.509 3.035-1.689l.489-.754h42.307v3.665h6.722v7.94H70.852v2.85H5.262V95.254l.51-.326c.834-.55 1.384-1.954 1.283-3.36-.102-1.261-.469-1.974-1.406-2.687-1.14-.834-3.096-.834-4.237 0-1.181.855-1.731 2.83-1.222 4.357.265.774 1.283 1.955 1.854 2.138.346.102.366 1.038.407 20.298l.061 20.197 34.16.061 34.18.041v2.443h6.722v7.94H70.873l-.061.957-.061.977-21.124.061-21.103.041-.631.794-.632.794v30.132l-.713.122c-2.24.428-3.422 3.665-2.057 5.66.713 1.039 1.426 1.446 2.73 1.548 2.037.142 3.218-.713 3.748-2.708.264-1.018 0-2.545-.57-3.176-.245-.265-.286-2.545-.286-15.331 0-9.956-.061-15.147-.204-15.412-.224-.387.082-.387 20.37-.387h20.573v3.868h6.722v11.605h12.222V172.62h1.63v15.86c0 15.717 0 15.86-.428 16.389l-.407.53H77.208l-13.383-.021-.408-.631c-.61-.977-1.588-1.445-2.953-1.445-2.119 0-3.524 1.445-3.544 3.624-.02 4.01 5.072 5.191 6.803 1.588l.51-1.079H91.67l1.201-1.039 1.202-1.038V172.62h3.666V165.901h7.945v3.278c0 3.095.02 3.278.407 3.38.407.102.407.285.407 37.013v36.933l-.529.407c-.53.427-.734.427-11.204.427-6.722 0-10.673-.081-10.673-.203 0-.367-1.324-1.69-1.976-1.955-1.63-.692-3.626-.041-4.502 1.446-.672 1.181-.57 3.196.224 4.255.835 1.079 1.589 1.405 3.076 1.303 1.507-.082 2.363-.611 2.913-1.792l.367-.794 11.02-.02h11.02l1.507-1.079 1.507-1.079.061-37.401.041-37.38 2.2-.061 2.18-.061.061-3.318.04-3.299h7.945V172.62h2.037v61.872l-.856.245c-2.241.59-3.137 3.278-1.915 5.639.652 1.263 2.384 1.894 4.013 1.466 2.363-.631 3.32-3.787 1.793-5.924-.367-.53-.387-1.446-.387-31.924V172.62h3.259V165.901h7.944V172.62h3.259v40.617c0 39.925 0 40.597-.387 40.821-.265.122-4.909.203-13.668.203-13.179 0-13.261 0-13.831-.427-1.589-1.161-3.952-.753-5.194.896-.652.875-.693 3.054-.082 4.112.835 1.446 2.913 2.118 4.502 1.446.896-.367 1.935-1.588 2.098-2.464l.122-.712H140.985l1.385-1.14 1.406-1.14V172.62H145.609V165.901h7.944l.041 3.319.061 3.298h7.944l.061-3.318.041-3.299h7.944V172.62h7.944V165.901h7.945l.04 3.299.061 3.318 3.911.061 3.932.041.041-3.298.061-3.319 8.005-.061 7.985-.041v-19.952h6.518v-2.443h26.888v31.353l-.794.489c-1.569.998-2.098 3.278-1.182 5.029 1.182 2.219 4.441 2.484 5.969.468.529-.692.59-.916.59-2.321 0-1.405-.061-1.629-.59-2.321-.326-.427-.897-.896-1.263-1.059l-.693-.285-.041-17.061-.061-17.041-14.401-.061-14.422-.04v-2.749l-3.259.061-3.259.061v-8.164H216.068l.061-1.792.061-1.771 16.316-.061 16.316-.041.367.835c1.242 2.728 5.174 2.647 6.437-.122 1.324-2.912-1.06-5.925-4.095-5.192-.896.224-2.24 1.201-2.24 1.649 0 .102-7.007.163-16.54.143l-16.561-.061-.061-.774-.061-.753H209.57v-21.581h-18.333l-.041-3.319c-.04-2.504-.122-3.278-.305-3.257-.204.04-.265-3.747-.265-18.466V56.774H227.271l.387.876c.57 1.282 1.467 1.852 3.096 1.934 1.121.061 1.426 0 2.017-.407 1.263-.855 1.548-1.425 1.548-3.176 0-1.833-.428-2.627-1.731-3.298-1.426-.734-3.035-.49-4.176.63l-.632.591-19.636.04-19.657.062-.061 19.85-.041 19.85-2.546-.06-2.546-.061v6.739h-8.046v-6.617l-.917-.02-.916-.02-.061-32.19-.041-32.208 14.809-.04 14.808-.062-.061-9.08-.061-9.08.693-.49c.937-.67 1.324-1.18 1.589-2.157.631-2.22-.815-4.48-3.015-4.703-1.324-.122-2.322.224-3.076 1.079-1.609 1.832-1.141 4.744.937 5.843l.876.468v16.227l-15.074-.061-15.073-.041-.061 33.227-.041 33.247-1.63.02-1.629.04-.061 3.3-.041 3.318h-7.944l-.041-3.319-.061-3.298-1.487-.02-1.467-.041V50.158c0-43.163 0-43.509.408-44.079.631-.896.896-2.382.631-3.42-.57-2.097-2.566-3.115-4.827-2.464z" fill="#8DF8FF"/></svg>