<svg width="24" height="25" viewBox="0 0 24 25" fill="none" xmlns="http://www.w3.org/2000/svg">
<path d="M9.75 4.52368C9.94891 4.52368 10.1397 4.44466 10.2803 4.30401C10.421 4.16336 10.5 3.97259 10.5 3.77368C10.5 3.57477 10.421 3.384 10.2803 3.24335C10.1397 3.1027 9.94891 3.02368 9.75 3.02368H5.25C5.05109 3.02368 4.86032 3.1027 4.71967 3.24335C4.57902 3.384 4.5 3.57477 4.5 3.77368C4.5 3.97259 4.57902 4.16336 4.71967 4.30401C4.86032 4.44466 5.05109 4.52368 5.25 4.52368H9.75Z" fill="#CDCECF"/>
<path d="M18.4699 6.65368V3.65368C18.4748 3.17903 18.364 2.70829 18.144 2.26854C17.924 1.82879 17.5991 1.42872 17.188 1.09134C16.7768 0.753965 16.2876 0.485949 15.7484 0.302717C15.2093 0.119485 14.6308 0.024654 14.0464 0.0236816L4.42354 0.0236816C3.2511 0.0256633 2.12737 0.404794 1.29832 1.07809C0.469274 1.75138 0.00244006 2.664 0 3.61618V20.4312C0.00244006 21.3834 0.469274 22.296 1.29832 22.9693C2.12737 23.6426 3.2511 24.0217 4.42354 24.0237H14.0464C15.2188 24.0217 16.3425 23.6426 17.1716 22.9693C18.0006 22.296 18.4675 21.3834 18.4699 20.4312V20.3937C20.114 19.8089 21.5127 18.8477 22.4948 17.6276C23.4769 16.4075 24 14.9814 24 13.5237C24 12.066 23.4769 10.6399 22.4948 9.4198C21.5127 8.1997 20.114 7.23847 18.4699 6.65368ZM14.0464 22.5237H4.42354C3.7402 22.5237 3.08484 22.3032 2.60165 21.9108C2.11845 21.5184 1.84699 20.9861 1.84699 20.4312V3.61618C1.84699 3.06122 2.11845 2.52898 2.60165 2.13656C3.08484 1.74414 3.7402 1.52368 4.42354 1.52368H14.0464C14.7297 1.52368 15.3851 1.74414 15.8683 2.13656C16.3515 2.52898 16.6229 3.06122 16.6229 3.61618V6.17368C16.0148 6.07442 15.3962 6.02418 14.7759 6.02368C12.3529 6.02348 10.0285 6.80283 8.31146 8.19118V7.52368C8.31146 7.32477 8.21416 7.134 8.04097 6.99335C7.86778 6.8527 7.63289 6.77368 7.38796 6.77368C7.14304 6.77368 6.90814 6.8527 6.73495 6.99335C6.56176 7.134 6.46447 7.32477 6.46447 7.52368V19.5237C6.46447 19.7226 6.56176 19.9134 6.73495 20.054C6.90814 20.1947 7.14304 20.2737 7.38796 20.2737C7.63289 20.2737 7.86778 20.1947 8.04097 20.054C8.21416 19.9134 8.31146 19.7226 8.31146 19.5237V18.8562C10.0285 20.2445 12.3529 21.0239 14.7759 21.0237C15.3743 21.0223 15.9711 20.9746 16.5583 20.8812C16.4322 21.3462 16.1146 21.7624 15.6579 22.0611C15.2012 22.3597 14.6327 22.5229 14.0464 22.5237ZM14.7759 19.5237C13.455 19.5227 12.1586 19.2342 11.0216 18.6881C9.88468 18.142 8.9488 17.3583 8.31146 16.4187V10.6287C8.94036 9.7015 9.86012 8.92594 10.9774 8.38073C12.0946 7.83551 13.3696 7.54006 14.6729 7.52435C15.9762 7.50863 17.2614 7.77322 18.3981 8.29126C19.5347 8.80929 20.4824 9.56233 21.145 10.474C21.8075 11.3856 22.1612 12.4233 22.1703 13.4818C22.1794 14.5404 21.8435 15.582 21.1967 16.501C20.5499 17.4201 19.6153 18.1838 18.4876 18.7146C17.3599 19.2455 16.0794 19.5246 14.7759 19.5237Z" fill="#CDCECF"/>
<path d="M12 11.2737H13.5C13.6989 11.2737 13.8897 11.1947 14.0303 11.054C14.171 10.9134 14.25 10.7226 14.25 10.5237C14.25 10.3248 14.171 10.134 14.0303 9.99335C13.8897 9.8527 13.6989 9.77368 13.5 9.77368H12.75C12.75 9.57477 12.671 9.384 12.5303 9.24335C12.3897 9.1027 12.1989 9.02368 12 9.02368C11.8011 9.02368 11.6103 9.1027 11.4697 9.24335C11.329 9.384 11.25 9.57477 11.25 9.77368V9.90868C10.754 10.0887 10.337 10.4373 10.0719 10.8935C9.80686 11.3498 9.7106 11.8847 9.79995 12.4048C9.88931 12.9248 10.1586 13.3969 10.5608 13.7385C10.9629 14.0802 11.4723 14.2696 12 14.2737C12.1989 14.2737 12.3897 14.3527 12.5303 14.4934C12.671 14.634 12.75 14.8248 12.75 15.0237C12.75 15.2226 12.671 15.4134 12.5303 15.554C12.3897 15.6947 12.1989 15.7737 12 15.7737H10.5C10.3011 15.7737 10.1103 15.8527 9.96967 15.9934C9.82902 16.134 9.75 16.3248 9.75 16.5237C9.75 16.7226 9.82902 16.9134 9.96967 17.054C10.1103 17.1947 10.3011 17.2737 10.5 17.2737H11.25C11.25 17.4726 11.329 17.6634 11.4697 17.804C11.6103 17.9447 11.8011 18.0237 12 18.0237C12.1989 18.0237 12.3897 17.9447 12.5303 17.804C12.671 17.6634 12.75 17.4726 12.75 17.2737V17.1387C13.246 16.9587 13.663 16.6101 13.9281 16.1538C14.1931 15.6976 14.2894 15.1627 14.2 14.6426C14.1107 14.1225 13.8414 13.6504 13.4392 13.3088C13.0371 12.9672 12.5277 12.7778 12 12.7737C11.8011 12.7737 11.6103 12.6947 11.4697 12.554C11.329 12.4134 11.25 12.2226 11.25 12.0237C11.25 11.8248 11.329 11.634 11.4697 11.4934C11.6103 11.3527 11.8011 11.2737 12 11.2737Z" fill="#CDCECF"/>
<path d="M21.75 3.77358H19.8075L20.0325 3.55608C20.1737 3.41485 20.253 3.2233 20.253 3.02358C20.253 2.82385 20.1737 2.6323 20.0325 2.49108C19.8912 2.34985 19.6997 2.27051 19.5 2.27051C19.3002 2.27051 19.1087 2.34985 18.9675 2.49108L17.4675 3.99108C17.3972 4.0608 17.3414 4.14375 17.3033 4.23514C17.2652 4.32654 17.2456 4.42457 17.2456 4.52358C17.2456 4.62259 17.2652 4.72061 17.3033 4.81201C17.3414 4.9034 17.3972 4.98635 17.4675 5.05608L18.9675 6.55608C19.0372 6.62637 19.1201 6.68217 19.2115 6.72024C19.3029 6.75832 19.4009 6.77793 19.5 6.77793C19.599 6.77793 19.697 6.75832 19.7884 6.72024C19.8798 6.68217 19.9627 6.62637 20.0325 6.55608C20.1027 6.48635 20.1585 6.4034 20.1966 6.31201C20.2347 6.22061 20.2543 6.12259 20.2543 6.02358C20.2543 5.92457 20.2347 5.82654 20.1966 5.73514C20.1585 5.64375 20.1027 5.5608 20.0325 5.49108L19.8075 5.27358H21.75C21.9489 5.27358 22.1396 5.19456 22.2803 5.05391C22.4209 4.91325 22.5 4.72249 22.5 4.52358C22.5 4.32466 22.4209 4.1339 22.2803 3.99325C22.1396 3.85259 21.9489 3.77358 21.75 3.77358Z" fill="#CDCECF"/>
</svg>
