<svg width="27" height="27" viewBox="0 0 27 27" fill="none" xmlns="http://www.w3.org/2000/svg">
<path d="M22.9083 9.05106L18.3341 10.7526L19.1811 5.57211L12.6642 0.5L6.14726 5.56128L7.64943 14.7084L3.63988 13.202L0.5 17.7647L5.01781 26.5H20.1412L23.4844 20.019L26.5 14.3074L22.9083 9.05106ZM22.0838 10.9152L22.05 13.2887L20.0621 12.5842L22.0838 10.9152ZM8.20287 25.4271L5.92137 16.4316L4.24978 14.5675L7.85274 15.9764L9.41138 25.4271H8.20287ZM7.73979 5.71301L10.9926 3.1336L9.80669 5.84306L7.73979 5.71301ZM14.9344 25.4271L15.7363 17.6997L16.4479 15.5213L13.3871 17.2228V25.4271H12.1108L11.0265 6.03814L12.6755 1.89808L18.0065 6.00563L16.4479 15.5213L18.8197 18.0356L16.3236 25.4271H14.9344ZM19.3619 25.4271H18.4131L23.2585 13.733L23.202 11.4571L25.2011 14.3833L19.3619 25.4271Z" fill="url(#paint0_linear_4873_115)"/>
<defs>
<linearGradient id="paint0_linear_4873_115" x1="0.5" y1="26.5" x2="26.5" y2="0.5" gradientUnits="userSpaceOnUse">
<stop stop-color="#82DBF7"/>
<stop offset="1" stop-color="#B6F09C"/>
</linearGradient>
</defs>
</svg>
