<svg width="20" height="21" viewBox="0 0 20 21" fill="none" xmlns="http://www.w3.org/2000/svg">
<path d="M18.5765 16.1585H1.49466C0.925267 16.1585 0.498221 15.8738 0.213523 15.4467C-0.0711744 15.0197 -0.0711744 14.4503 0.213523 14.0232L8.75445 1.21186C9.32384 0.357766 10.605 0.357766 11.1744 1.21186L19.7153 14.0232C20 14.4503 20 15.0197 19.7153 15.4467C19.4306 15.8738 19.1459 16.1585 18.5765 16.1585ZM4.19929 13.3115H16.0142L10.0356 4.48588L4.19929 13.3115Z" fill="url(#paint0_linear_4873_1165)"/>
<path d="M18.5766 20.429H1.49478C0.640684 20.429 0.0712891 19.8596 0.0712891 19.0055C0.0712891 18.1514 0.640684 17.582 1.49478 17.582H18.5766C19.4307 17.582 20.0001 18.1514 20.0001 19.0055C20.0001 19.8596 19.4307 20.429 18.5766 20.429Z" fill="url(#paint1_linear_4873_1165)"/>
<defs>
<linearGradient id="paint0_linear_4873_1165" x1="-2.86935e-07" y1="16.1585" x2="15.1282" y2="-3.1835" gradientUnits="userSpaceOnUse">
<stop stop-color="#CA6100"/>
<stop offset="1" stop-color="#FF9900"/>
</linearGradient>
<linearGradient id="paint1_linear_4873_1165" x1="0.0712888" y1="20.429" x2="0.868442" y2="14.8489" gradientUnits="userSpaceOnUse">
<stop stop-color="#CA6100"/>
<stop offset="1" stop-color="#FF9900"/>
</linearGradient>
</defs>
</svg>
