<svg width="224" height="223" viewBox="0 0 224 223" fill="none" xmlns="http://www.w3.org/2000/svg">
<path d="M94.7741 80.5421C78.0982 76.8674 61.6019 87.4104 57.9272 104.086C54.2525 120.762 64.793 137.258 81.4713 140.933C98.1471 144.608 114.646 134.065 118.318 117.389C121.993 100.713 111.452 84.2143 94.7741 80.5421ZM105.833 114.637C103.684 124.404 93.9888 130.597 84.2211 128.445C74.4559 126.296 68.2633 116.601 70.4123 106.836C72.5612 97.0708 82.2566 90.8757 92.0243 93.0246C101.792 95.1786 107.985 104.874 105.833 114.637Z" fill="url(#paint0_linear_4977_3415)" stroke="url(#paint1_linear_4977_3415)" stroke-width="2.49302" stroke-miterlimit="10"/>
<path d="M190.212 0.551025H33.411C15.8552 0.551025 1.625 14.7812 1.625 32.337V189.136C1.625 206.691 15.8552 220.922 33.411 220.922H190.212C207.765 220.922 221.998 206.691 221.998 189.136V32.337C221.998 14.7812 207.765 0.551025 190.212 0.551025ZM150.949 120.657L149.302 128.134C148.773 130.527 147.315 132.613 145.25 133.933C143.184 135.252 140.679 135.698 138.285 135.172L116.129 130.29L128.345 149.409C128.999 150.432 129.445 151.573 129.658 152.768C129.87 153.963 129.845 155.189 129.584 156.374C129.323 157.559 128.831 158.682 128.136 159.677C127.44 160.672 126.556 161.52 125.533 162.174L119.081 166.297C117.015 167.615 114.509 168.06 112.115 167.532C109.721 167.004 107.635 165.548 106.314 163.482L94.0986 144.366L89.2173 166.521C88.9569 167.707 88.4653 168.83 87.7707 169.825C87.076 170.821 86.192 171.67 85.169 172.323C84.1461 172.977 83.0043 173.423 81.8091 173.635C80.6138 173.847 79.3884 173.821 78.2031 173.559L70.724 171.914C65.738 170.817 62.5893 165.881 63.6887 160.9L68.5676 138.742L49.4511 150.955C48.4283 151.609 47.2866 152.055 46.0914 152.267C44.8961 152.48 43.6707 152.455 42.4851 152.194C41.2995 151.933 40.177 151.441 39.1817 150.745C38.1864 150.05 37.3378 149.166 36.6843 148.143L32.5609 141.693C31.2414 139.627 30.7965 137.121 31.3238 134.727C31.8511 132.332 33.3075 130.245 35.373 128.924L54.492 116.711L32.3365 111.829C31.1512 111.568 30.0288 111.077 29.0336 110.382C28.0384 109.687 27.1898 108.803 26.5363 107.78C25.8827 106.757 25.4371 105.616 25.2247 104.421C25.0124 103.226 25.0375 102.001 25.2987 100.815L26.9441 93.3387C27.2051 92.1534 27.6971 91.031 28.3919 90.0358C29.0866 89.0406 29.9707 88.192 30.9935 87.5385C32.0162 86.8849 33.1577 86.4393 34.3528 86.2269C35.5478 86.0146 36.773 86.0398 37.9583 86.3009L60.1162 91.1823L47.9004 72.0633C46.5818 69.997 46.1373 67.4918 46.6645 65.098C47.1918 62.7042 48.6478 60.6176 50.7126 59.2965L57.162 55.1756C59.228 53.8567 61.733 53.4118 64.1268 53.9386C66.5206 54.4654 68.6074 55.9209 69.9288 57.9852L82.1446 77.1017L87.0259 54.9487C88.1228 49.9627 93.054 46.8115 98.0401 47.9084L105.519 49.5563C107.912 50.0853 109.997 51.5422 111.317 53.6073C112.636 55.6724 113.082 58.1768 112.557 60.5705L107.676 82.7284L126.792 70.5126C128.858 69.1938 131.363 68.7488 133.757 69.2756C136.151 69.8025 138.237 71.2579 139.559 73.3223L143.677 79.7767C144.331 80.7992 144.777 81.9405 144.99 83.1355C145.203 84.3304 145.178 85.5556 144.917 86.741C144.656 87.9263 144.164 89.0487 143.469 90.0439C142.775 91.039 141.891 91.8876 140.868 92.541L121.749 104.757L143.904 109.638C146.3 110.165 148.387 111.622 149.709 113.689C151.03 115.755 151.476 118.262 150.949 120.657ZM190.583 111.316C190.937 112.074 191.154 112.911 191.154 113.806V137.298C191.154 138.071 191.002 138.836 190.706 139.55C190.411 140.264 189.977 140.912 189.431 141.458C188.885 142.005 188.236 142.438 187.522 142.734C186.809 143.03 186.043 143.182 185.271 143.182H179.076C178.303 143.182 177.537 143.03 176.823 142.735C176.109 142.439 175.46 142.006 174.914 141.459C174.367 140.913 173.934 140.264 173.638 139.55C173.342 138.836 173.19 138.071 173.19 137.298V113.806C173.19 112.914 173.407 112.076 173.761 111.316C171.112 109.517 169.109 106.916 168.048 103.895C166.986 100.874 166.922 97.5925 167.863 94.532C168.804 91.4715 170.703 88.7936 173.279 86.8916C175.854 84.9897 178.972 83.9639 182.174 83.965C184.141 83.9647 186.088 84.3516 187.904 85.1038C189.721 85.856 191.372 86.9587 192.762 88.3489C194.152 89.7391 195.255 91.3895 196.008 93.206C196.76 95.0225 197.148 96.9694 197.148 98.9356C197.147 101.378 196.549 103.784 195.405 105.942C194.261 108.1 192.605 109.945 190.583 111.316Z" fill="url(#paint2_linear_4977_3415)" stroke="url(#paint3_linear_4977_3415)" stroke-width="2.49302" stroke-miterlimit="10"/>
<defs>
<linearGradient id="paint0_linear_4977_3415" x1="119.049" y1="79.8113" x2="57.1965" y2="141.664" gradientUnits="userSpaceOnUse">
<stop stop-color="#82DBF7"/>
<stop offset="1" stop-color="#B6F09C"/>
</linearGradient>
<linearGradient id="paint1_linear_4977_3415" x1="57.1963" y1="141.664" x2="119.049" y2="79.811" gradientUnits="userSpaceOnUse">
<stop stop-color="#82DBF7"/>
<stop offset="1" stop-color="#B6F09C"/>
</linearGradient>
<linearGradient id="paint2_linear_4977_3415" x1="221.998" y1="0.551025" x2="1.62747" y2="220.924" gradientUnits="userSpaceOnUse">
<stop stop-color="#82DBF7"/>
<stop offset="1" stop-color="#B6F09C"/>
</linearGradient>
<linearGradient id="paint3_linear_4977_3415" x1="1.625" y1="220.922" x2="221.996" y2="0.54855" gradientUnits="userSpaceOnUse">
<stop stop-color="#82DBF7"/>
<stop offset="1" stop-color="#B6F09C"/>
</linearGradient>
</defs>
</svg>
