<svg width="80" height="81" viewBox="0 0 80 81" fill="none" xmlns="http://www.w3.org/2000/svg">
<path d="M34.0935 0.279945C28.4933 1.15498 22.018 3.73634 17.2491 6.97396C14.3615 8.94279 9.54881 13.668 7.36123 16.7306C4.82363 20.2745 2.15477 25.9622 1.01723 30.2499C-0.339076 35.2376 -0.339076 44.9504 1.01723 49.9381C2.9423 57.1572 6.92371 63.8512 12.2614 69.0139C15.9803 72.5578 18.3867 74.1766 23.0243 76.4079C28.9746 79.2518 32.606 80.0393 40 80.0393C47.394 80.0393 51.0254 79.2518 56.9757 76.4079C61.6133 74.1766 64.0197 72.5578 67.7386 69.0139C73.0763 63.8512 77.0577 57.1572 78.9828 49.9381C80.3391 44.9504 80.3391 35.2376 78.9828 30.2499C77.8452 25.9622 75.1764 20.2745 72.6388 16.7306C70.4512 13.668 65.6385 8.94279 62.6634 6.88645C59.4258 4.69887 53.6943 2.11752 49.8441 1.15498C45.7752 0.104942 37.9874 -0.332573 34.0935 0.279945ZM38.6875 4.2176C38.6875 6.14268 38.5562 6.40519 37.7249 6.58019C28.6246 8.19901 24.6869 9.73032 19.4804 13.6242C14.0552 17.7369 9.41756 24.7809 7.57998 31.6499C6.31118 36.3751 6.31118 43.8129 7.57998 48.5381C9.41756 55.4071 14.0552 62.4511 19.4804 66.5638C24.6869 70.4577 28.6246 71.989 37.7249 73.6078C38.5562 73.7828 38.6875 74.0453 38.6875 76.0141V78.2017L36.4124 77.9392C20.2242 76.0141 7.40498 64.9887 3.16106 49.3256C1.89226 44.6442 1.89226 35.5438 3.16106 30.8624C7.53623 14.6743 21.318 3.25507 37.9437 2.07377C38.5562 2.03001 38.6875 2.42378 38.6875 4.2176ZM48.6191 3.16756C61.9196 6.09892 73.12 17.0368 76.7952 30.7311C78.1077 35.5876 78.1515 44.5567 76.8389 49.3256C72.6388 64.9012 59.6883 76.1017 43.8502 77.8955L41.3125 78.158V75.9704C41.3125 74.0453 41.4438 73.7828 42.3188 73.6078C51.3754 71.989 55.3131 70.4577 60.5196 66.5638C65.9448 62.4511 70.5824 55.4071 72.42 48.5381C73.6888 43.8129 73.6888 36.3751 72.42 31.6499C70.5824 24.7809 65.9448 17.7369 60.5196 13.6242C55.3131 9.73032 51.3754 8.19901 42.3188 6.58019C41.4438 6.40519 41.3125 6.14268 41.3125 4.17385V1.98627L43.6314 2.29253C44.8564 2.42378 47.1315 2.81754 48.6191 3.16756ZM47.4378 9.73032C56.0131 11.6554 63.9759 18.0869 68.0011 26.3122C70.2324 30.8624 71.1512 34.9313 71.1512 40.094C71.1512 52.1695 64.5447 62.8449 53.7818 68.0951C49.2316 70.3264 45.1627 71.2452 40 71.2452C27.9245 71.2452 17.2491 64.6387 11.9989 53.8758C9.76757 49.3256 8.84878 45.2567 8.84878 40.094C8.84878 34.9313 9.76757 30.8624 11.9989 26.3122C15.0615 20.012 19.9617 15.1118 26.2182 12.0929C33.2622 8.68027 39.6062 7.98025 47.4378 9.73032Z" fill="url(#paint0_linear_855_6101)"/>
<path d="M42.3626 20.7995C40 21.8058 40 21.8933 40 40.1815V57.1134L41.05 58.3385C42.1001 59.5635 42.1438 59.5635 47.5253 59.5635C52.3817 59.5198 53.1255 59.4323 55.4006 58.3822C61.4383 55.5821 64.9385 48.8881 64.9385 40.0503C64.9385 35.3688 63.8884 31.1249 62.0509 27.9748C59.907 24.4747 59.032 23.6434 55.8819 22.0683C53.388 20.8433 52.6442 20.712 48.2253 20.5808C45.5127 20.4933 42.8439 20.5808 42.3626 20.7995ZM54.2631 23.6871C63.9322 27.7123 65.8573 46.5693 57.4132 54.4008C55.0068 56.5447 53.6505 57.0259 48.2253 57.376C41.5751 57.8572 42.1876 59.6073 42.1876 40.094C42.1876 24.7809 42.2313 23.4684 42.9751 23.0309C44.0689 22.3308 52.163 22.8121 54.2631 23.6871Z" fill="url(#paint1_linear_855_6101)"/>
<path d="M45.0312 26.2247C44.9 26.531 44.8562 32.9625 44.9 40.5315L45.0312 54.3133L48.6626 54.4446C51.944 54.5758 52.5127 54.4446 54.2628 53.4383C56.6254 52.0382 58.1567 49.8944 59.2505 46.263C61.6131 38.694 59.0755 29.1123 54.0441 26.531C51.944 25.481 45.3812 25.2622 45.0312 26.2247ZM53.2565 28.6748C59.1193 32.525 59.513 45.7817 53.9566 50.8132C52.3815 52.2132 51.9877 52.3445 49.6251 52.3445H47V40.094V27.8435H49.5376C51.2439 27.8435 52.4252 28.1061 53.2565 28.6748Z" fill="url(#paint2_linear_855_6101)"/>
<path d="M32.781 21.937L31.6872 22.9871V35.5438C31.6872 49.3256 31.5122 50.4194 29.0183 51.6882C27.312 52.607 25.9119 52.5195 24.2056 51.3382C23.0243 50.5507 22.5868 49.8506 22.1493 47.9693C21.843 46.6568 21.1868 45.213 20.6617 44.7754C19.4804 43.7691 17.6429 43.8129 16.1991 44.9504C15.2365 45.6942 15.0615 46.1755 15.0615 48.1006C15.1053 53.8758 19.7867 58.776 25.7807 59.2573C29.3246 59.5198 31.9497 58.601 34.6623 56.1071C38.4687 52.607 38.4687 52.6945 38.5999 36.9439L38.7312 23.0308L37.6374 21.937C36.1936 20.4932 34.181 20.4932 32.781 21.937ZM36.2373 23.7309C36.7186 25.0434 36.5436 48.4506 35.9748 50.2006C35.3186 52.4757 32.781 55.3196 30.6371 56.3259C26.3495 58.2947 21.1868 56.5884 18.6929 52.3445C17.1179 49.7194 16.7241 46.8318 17.9054 46.3942C18.8679 46.0005 19.8742 47.0068 19.8742 48.4068C19.8742 49.8069 21.3618 52.1257 23.0243 53.3508C26.1307 55.6696 31.0309 54.2696 32.9122 50.5944C33.831 48.7131 33.8748 48.2318 33.8748 36.1564C33.8748 29.2436 34.006 23.4684 34.181 23.3371C34.706 22.7683 35.9748 23.0308 36.2373 23.7309Z" fill="url(#paint3_linear_855_6101)"/>
<defs>
<linearGradient id="paint0_linear_855_6101" x1="-1.15184e-06" y1="-1.41064e-05" x2="80.0393" y2="80" gradientUnits="userSpaceOnUse">
<stop stop-color="#82DBF7"/>
<stop offset="1" stop-color="#B6F09C"/>
</linearGradient>
<linearGradient id="paint1_linear_855_6101" x1="40" y1="20.5472" x2="75.4101" y2="43.1807" gradientUnits="userSpaceOnUse">
<stop stop-color="#82DBF7"/>
<stop offset="1" stop-color="#B6F09C"/>
</linearGradient>
<linearGradient id="paint2_linear_855_6101" x1="44.8835" y1="25.6104" x2="68.7396" y2="38.216" gradientUnits="userSpaceOnUse">
<stop stop-color="#82DBF7"/>
<stop offset="1" stop-color="#B6F09C"/>
</linearGradient>
<linearGradient id="paint3_linear_855_6101" x1="15.0615" y1="20.8542" x2="49.3895" y2="41.9884" gradientUnits="userSpaceOnUse">
<stop stop-color="#82DBF7"/>
<stop offset="1" stop-color="#B6F09C"/>
</linearGradient>
</defs>
</svg>
