<svg width="24" height="25" viewBox="0 0 24 25" fill="none" xmlns="http://www.w3.org/2000/svg">
<path d="M5.75949 12.8448C6.213 13.2983 6.94829 13.2983 7.4018 12.8448C7.85531 12.3913 7.85531 11.6561 7.4018 11.2026L5.75949 12.8448ZM1.98245 5.78318C1.52894 5.32967 0.793641 5.32967 0.340134 5.78318C-0.113373 6.23668 -0.113373 6.97198 0.340134 7.42549L1.98245 5.78318ZM1.16129 5.44304C0.519933 5.44304 0 5.96298 0 6.60433C0 7.24569 0.519933 7.76563 1.16129 7.76563V5.44304ZM22.8387 7.76563C23.4801 7.76563 24 7.24569 24 6.60433C24 5.96298 23.4801 5.44304 22.8387 5.44304V7.76563ZM0.340134 5.78318C-0.113373 6.23668 -0.113373 6.97198 0.340134 7.42549C0.793641 7.879 1.52894 7.879 1.98245 7.42549L0.340134 5.78318ZM7.4018 2.00613C7.85531 1.55262 7.85531 0.81732 7.4018 0.363813C6.94829 -0.0896953 6.213 -0.0896953 5.75949 0.363813L7.4018 2.00613ZM18.2405 11.2026C17.7869 10.7491 17.0518 10.7491 16.5982 11.2026C16.1447 11.6561 16.1447 12.3913 16.5982 12.8448L18.2405 11.2026ZM22.0176 18.2642C22.4711 18.7177 23.2063 18.7177 23.6598 18.2642C24.1133 17.8107 24.1133 17.0755 23.6598 16.622L22.0176 18.2642ZM22.8387 18.6044C23.4801 18.6044 24 18.0844 24 17.4431C24 16.8017 23.4801 16.2818 22.8387 16.2818V18.6044ZM1.16129 16.2818C0.519933 16.2818 0 16.8017 0 17.4431C0 18.0844 0.519933 18.6044 1.16129 18.6044V16.2818ZM23.6598 18.2642C24.1133 17.8107 24.1133 17.0755 23.6598 16.622C23.2063 16.1684 22.4711 16.1684 22.0176 16.622L23.6598 18.2642ZM16.5982 22.0413C16.1447 22.4948 16.1447 23.23 16.5982 23.6835C17.0518 24.1371 17.7869 24.1371 18.2405 23.6835L16.5982 22.0413ZM7.4018 11.2026L1.98245 5.78318L0.340134 7.42549L5.75949 12.8448L7.4018 11.2026ZM1.16129 7.76563H22.8387V5.44304H1.16129V7.76563ZM1.98245 7.42549L7.4018 2.00613L5.75949 0.363813L0.340134 5.78318L1.98245 7.42549ZM16.5982 12.8448L22.0176 18.2642L23.6598 16.622L18.2405 11.2026L16.5982 12.8448ZM22.8387 16.2818H1.16129V18.6044H22.8387V16.2818ZM22.0176 16.622L16.5982 22.0413L18.2405 23.6835L23.6598 18.2642L22.0176 16.622Z" fill="#CDCECF"/>
</svg>
