<svg width="27" height="26" viewBox="0 0 27 26" fill="none" xmlns="http://www.w3.org/2000/svg">
<path d="M22.9083 8.55106L18.3341 10.2526L19.1811 5.07211L12.6642 0L6.14726 5.06128L7.64943 14.2084L3.63988 12.702L0.5 17.2647L5.01781 26H20.1412L23.4844 19.519L26.5 13.8074L22.9083 8.55106ZM22.0838 10.4152L22.05 12.7887L20.0621 12.0842L22.0838 10.4152ZM8.20287 24.9271L5.92137 15.9316L4.24978 14.0675L7.85274 15.4764L9.41138 24.9271H8.20287ZM7.73979 5.21301L10.9926 2.6336L9.80669 5.34306L7.73979 5.21301ZM14.9344 24.9271L15.7363 17.1997L16.4479 15.0213L13.3871 16.7228V24.9271H12.1108L11.0265 5.53814L12.6755 1.39808L18.0065 5.50563L16.4479 15.0213L18.8197 17.5356L16.3236 24.9271H14.9344ZM19.3619 24.9271H18.4131L23.2585 13.233L23.202 10.9571L25.2011 13.8833L19.3619 24.9271Z" fill="url(#paint0_linear_4873_1097)"/>
<defs>
<linearGradient id="paint0_linear_4873_1097" x1="0.5" y1="26" x2="26.5" y2="-3.74348e-07" gradientUnits="userSpaceOnUse">
<stop stop-color="#CA6100"/>
<stop offset="1" stop-color="#FF9900"/>
</linearGradient>
</defs>
</svg>
