<svg width="200" height="140" viewBox="0 0 200 140" fill="none" xmlns="http://www.w3.org/2000/svg">
<rect width="200" height="140" fill="#8CDD00"/>
<path fill-rule="evenodd" clip-rule="evenodd" d="M57.7398 76.5085C57.1128 76.0267 56.7709 75.2898 56.7124 74.2995L59.1304 73.1108C59.18 73.6671 59.3235 74.0816 59.5644 74.3544C59.8054 74.6272 60.1579 74.7618 60.6255 74.7618C61.2385 74.7618 61.715 74.5369 62.0515 74.0851C62.3881 73.6334 62.6414 72.9319 62.8097 71.9789L64.319 63.4226H66.9868L65.4332 72.2393C65.1215 74.009 64.4855 75.2827 63.5254 76.0621C62.5653 76.8416 61.4475 77.2313 60.172 77.2313C59.1765 77.2331 58.3669 76.9921 57.7398 76.5085ZM68.4908 69.5502C69.0736 68.7831 69.7769 68.1914 70.5971 67.7769C71.419 67.3624 72.264 67.1551 73.1356 67.1551C73.9947 67.1551 74.7582 67.3624 75.4278 67.7769C76.0974 68.1914 76.5881 68.7831 76.8999 69.5502C77.2117 70.3172 77.2808 71.2012 77.1036 72.2038C76.9265 73.2065 76.5474 74.0905 75.9646 74.8575C75.3818 75.6246 74.6838 76.2127 73.869 76.6201C73.0541 77.0276 72.218 77.2331 71.3588 77.2331C70.4873 77.2331 69.7131 77.0293 69.0364 76.6201C68.3598 76.2127 67.8655 75.6246 67.5537 74.8575C67.2402 74.0905 67.1729 73.2065 67.35 72.2038C67.529 71.2012 67.908 70.3172 68.4908 69.5502ZM70.2782 74.2357C70.613 74.737 71.1002 74.9868 71.7379 74.9868C72.3756 74.9868 72.9478 74.737 73.4527 74.2357C73.9575 73.7344 74.287 73.0577 74.4358 72.2038C74.5864 71.35 74.4978 70.6697 74.1701 70.1613C73.8424 69.6547 73.3588 69.3996 72.7211 69.3996C72.0833 69.3996 71.5076 69.6529 70.9957 70.1613C70.4819 70.668 70.1507 71.3482 70.0001 72.2038C69.8513 73.0577 69.9434 73.7344 70.2782 74.2357ZM88.4622 67.396H85.7944L82.3224 74.0231L80.969 67.3977H78.0975L80.5137 77.1781C80.1683 77.7467 79.8778 78.1772 79.6422 78.4677C79.4065 78.7582 79.178 78.9619 78.9548 79.0806C78.7316 79.1975 78.4783 79.256 78.1967 79.256C77.7556 79.256 77.3747 79.1214 77.0541 78.8486L75.6954 80.8167C75.9381 81.0381 76.2428 81.2153 76.6059 81.3446C76.969 81.4739 77.3729 81.5394 77.814 81.5394C78.7228 81.5394 79.5252 81.2826 80.2232 80.7688C80.9211 80.2551 81.5978 79.4243 82.255 78.2728L88.4622 67.396ZM90.9281 77.0099H88.2603L90.6553 63.4244H93.3231L90.9281 77.0099ZM104.051 64.2233C103.084 63.6901 101.943 63.4244 100.63 63.4244V63.4262H96.1396L93.7446 77.0117H98.2352C99.5603 77.0117 100.799 76.7424 101.948 76.2039C103.1 75.6671 104.07 74.8841 104.866 73.8567C105.659 72.8292 106.18 71.6104 106.43 70.2003C106.68 68.7884 106.588 67.5732 106.154 66.5528C105.72 65.5307 105.018 64.7566 104.051 64.2233ZM101.865 73.5396C100.954 74.319 99.7746 74.7087 98.3274 74.7087H96.8181L98.4053 65.7078H99.9146C101.349 65.7078 102.388 66.1011 103.029 66.8859C103.668 67.6724 103.865 68.776 103.613 70.1985C103.358 71.6476 102.775 72.7601 101.865 73.5396Z" fill="#232323"/>
<path d="M38.0822 65.1213L36.518 72.558C36.3728 73.2524 35.751 73.7555 35.0424 73.7555C34.5836 73.7555 34.1567 73.55 33.868 73.194C33.643 72.9158 33.5296 72.5739 33.5349 72.2232L30.7095 72.953C30.8299 73.6935 31.1346 74.4003 31.62 75.0044C32.4579 76.0443 33.705 76.6413 35.0407 76.6413C37.1062 76.6413 38.913 75.1745 39.3382 73.1532L41.0281 65.1231H38.0822V65.1213Z" fill="white"/>
<path fill-rule="evenodd" clip-rule="evenodd" d="M51.3215 59.837C50.3738 58.6696 48.9673 58 47.4633 58H43.9824L43.3748 60.884H47.4633C48.094 60.884 48.6838 61.1639 49.0807 61.6546C49.4775 62.1435 49.6316 62.7794 49.5023 63.3959L48.8946 66.2817H51.8423L52.3259 63.9911C52.6342 62.519 52.2692 61.0044 51.3215 59.837ZM32.3997 67.697C32.3997 66.9158 33.0338 66.2816 33.815 66.2816C34.5963 66.2816 35.2287 66.9158 35.2304 67.697C35.2304 68.4782 34.5963 69.1124 33.815 69.1124C33.0338 69.1124 32.3997 68.4782 32.3997 67.697ZM45.8827 67.8424C45.8827 68.7043 45.184 69.4031 44.3221 69.4031C43.4601 69.4031 42.7614 68.7043 42.7614 67.8424C42.7614 66.9804 43.4601 66.2817 44.3221 66.2817C45.184 66.2817 45.8827 66.9804 45.8827 67.8424ZM42.6354 79.116C44.6992 79.116 46.5043 77.651 46.9294 75.6315L47.3138 73.798H50.2615L49.7513 76.2249C49.0481 79.5713 46.0543 82 42.6354 82H38.9296L39.5372 79.116H42.6354ZM25.6828 63.775L25.1549 66.2835H28.1026L28.5047 64.3702C28.9299 62.3508 30.735 60.8857 32.7987 60.8857H35.7676L36.3752 58.0018H32.7987C29.3798 58 26.3861 60.4287 25.6828 63.775ZM25.9314 76.6023C25.8021 77.2188 25.9562 77.8547 26.353 78.3437C26.7498 78.8344 27.3397 79.1143 27.9703 79.116H31.9295L31.3219 82H27.9703C26.4663 82 25.0598 81.3304 24.1121 80.163C23.1644 78.9956 22.7977 77.4809 23.1077 76.0088L23.3521 74.8503L26.4699 74.0461L25.9314 76.6023Z" fill="white"/>
<path fill-rule="evenodd" clip-rule="evenodd" d="M112.603 64L110 77.1973H111.598L112.568 72.3772H115.284C116.307 72.3772 117.176 72.1882 117.894 71.8101C118.616 71.4321 119.187 70.9252 119.608 70.2894C120.033 69.6535 120.31 68.949 120.439 68.1757C120.568 67.3938 120.525 66.6872 120.31 66.0556C120.1 65.4241 119.694 64.9236 119.093 64.5542C118.495 64.1847 117.681 64 116.65 64H112.603ZM112.854 70.9595H115.465C116.169 70.9595 116.758 70.8371 117.23 70.5922C117.703 70.3474 118.072 70.0144 118.339 69.5934C118.605 69.1724 118.781 68.6998 118.867 68.1757C118.953 67.643 118.931 67.1705 118.803 66.758C118.678 66.3413 118.418 66.0148 118.023 65.7785C117.632 65.538 117.08 65.4177 116.367 65.4177H113.97L112.854 70.9595ZM149.783 73.7727L149.128 77.1973H147.427L150.132 64H151.652L150.178 71.707H150.544L155.622 67.2993H157.504L152.61 71.5371L156.163 77.1973H154.23L151.32 72.512L149.783 73.7727ZM160.893 77.4036C159.943 77.4036 159.159 77.1931 158.541 76.7721C157.922 76.3467 157.49 75.7539 157.246 74.9935C157.001 74.2288 156.962 73.3395 157.13 72.3257C157.297 71.3118 157.63 70.4183 158.128 69.645C158.627 68.8674 159.248 68.2617 159.991 67.8278C160.734 67.3896 161.55 67.1705 162.439 67.1705C162.955 67.1705 163.451 67.2564 163.928 67.4282C164.405 67.6001 164.817 67.8793 165.165 68.266C165.513 68.6483 165.756 69.1552 165.893 69.7867C166.031 70.4183 166.022 71.1958 165.868 72.1195L165.765 72.7639H158.565C158.445 73.5603 158.467 74.1961 158.631 74.6713C158.803 75.1568 159.101 75.5069 159.527 75.7217C159.952 75.9322 160.485 76.0374 161.125 76.0374C161.533 76.0374 161.909 75.9816 162.253 75.8699C162.596 75.7539 162.903 75.5821 163.174 75.3544C163.445 75.1224 163.672 74.8346 163.857 74.4909L165.249 74.9033C165.013 75.4016 164.68 75.8398 164.25 76.2179C163.825 76.5916 163.327 76.8837 162.755 77.0943C162.188 77.3005 161.567 77.4036 160.893 77.4036ZM159.372 70.1605C159.071 70.583 158.873 71.0126 158.778 71.4493H164.424C164.523 70.8908 164.497 70.3925 164.347 69.9543C164.201 69.5161 163.945 69.1703 163.58 68.9168C163.219 68.6633 162.762 68.5366 162.207 68.5366C161.636 68.5366 161.103 68.6913 160.609 69.0006C160.115 69.3056 159.703 69.6922 159.372 70.1605ZM166.803 80.9091C166.546 80.9091 166.318 80.8876 166.12 80.8447C165.927 80.806 165.794 80.7674 165.721 80.7287L166.339 79.3883C166.692 79.4828 167.005 79.5108 167.28 79.4721C167.559 79.4377 167.824 79.3024 168.073 79.0661C168.326 78.8342 168.59 78.469 168.865 77.9707L169.291 77.1974L167.306 67.2994H168.891L170.309 75.2126H170.412L174.459 67.2994H176.173L170.103 78.6279C169.819 79.1564 169.508 79.5881 169.168 79.9232C168.829 80.2583 168.462 80.5053 168.066 80.6642C167.671 80.8275 167.25 80.9091 166.803 80.9091ZM147.395 69.5161L145.952 69.9027C145.9 69.6708 145.81 69.4474 145.681 69.2326C145.556 69.0135 145.363 68.8352 145.101 68.6977C144.843 68.5559 144.491 68.4851 144.044 68.4851C143.438 68.4851 142.912 68.6247 142.465 68.9039C142.019 69.1789 141.763 69.529 141.699 69.9543C141.634 70.328 141.72 70.6266 141.956 70.85C142.193 71.0734 142.588 71.256 143.142 71.3977L144.56 71.7586C145.41 71.9777 146.016 72.3064 146.377 72.7445C146.742 73.1784 146.867 73.7434 146.751 74.4393C146.656 75.0064 146.409 75.5133 146.01 75.9601C145.61 76.4069 145.099 76.7592 144.476 77.0169C143.853 77.2747 143.159 77.4036 142.395 77.4036C141.376 77.4036 140.573 77.1845 139.984 76.7463C139.396 76.3038 139.082 75.6637 139.044 74.826L140.564 74.4651C140.603 74.9935 140.792 75.393 141.132 75.6637C141.475 75.93 141.956 76.0632 142.575 76.0632C143.284 76.0632 143.875 75.9129 144.347 75.6121C144.82 75.3071 145.088 74.942 145.153 74.5166C145.217 74.1687 145.148 73.8787 144.946 73.6467C144.749 73.4147 144.405 73.2407 143.915 73.1247L142.343 72.7381C141.467 72.519 140.852 72.1839 140.5 71.7328C140.152 71.2818 140.036 70.7147 140.152 70.0316C140.247 69.4731 140.487 68.9791 140.874 68.5495C141.265 68.1199 141.754 67.7827 142.343 67.5378C142.936 67.2929 143.58 67.1705 144.276 67.1705C145.256 67.1705 145.988 67.3853 146.474 67.8149C146.959 68.2402 147.266 68.8073 147.395 69.5161ZM137.106 69.9027L138.549 69.5161C138.421 68.8073 138.113 68.2402 137.628 67.8149C137.142 67.3853 136.41 67.1705 135.431 67.1705C134.735 67.1705 134.09 67.2929 133.497 67.5378C132.909 67.7827 132.419 68.1199 132.028 68.5495C131.641 68.9791 131.401 69.4731 131.306 70.0316C131.19 70.7147 131.306 71.2818 131.654 71.7328C132.007 72.1839 132.621 72.519 133.497 72.7381L135.07 73.1247C135.559 73.2407 135.903 73.4147 136.101 73.6467C136.303 73.8787 136.371 74.1687 136.307 74.5166C136.242 74.942 135.974 75.3071 135.501 75.6121C135.029 75.9129 134.438 76.0632 133.729 76.0632C133.111 76.0632 132.63 75.93 132.286 75.6637C131.946 75.393 131.757 74.9935 131.719 74.4651L130.198 74.826C130.237 75.6637 130.55 76.3038 131.139 76.7463C131.727 77.1845 132.531 77.4036 133.549 77.4036C134.314 77.4036 135.007 77.2747 135.63 77.0169C136.253 76.7592 136.764 76.4069 137.164 75.9601C137.563 75.5133 137.81 75.0064 137.905 74.4393C138.021 73.7434 137.896 73.1784 137.531 72.7445C137.17 72.3064 136.565 71.9777 135.714 71.7586L134.296 71.3977C133.742 71.256 133.347 71.0734 133.111 70.85C132.874 70.6266 132.788 70.328 132.853 69.9543C132.917 69.529 133.173 69.1789 133.62 68.9039C134.067 68.6247 134.593 68.4851 135.199 68.4851C135.645 68.4851 135.998 68.5559 136.255 68.6977C136.517 68.8352 136.711 69.0135 136.835 69.2326C136.964 69.4474 137.054 69.6708 137.106 69.9027ZM123.547 77.4293C122.919 77.4293 122.369 77.3112 121.897 77.0749C121.424 76.8343 121.074 76.4885 120.847 76.0374C120.619 75.5821 120.557 75.0322 120.66 74.3878C120.758 73.8207 120.95 73.361 121.233 73.0087C121.517 72.6522 121.86 72.3729 122.264 72.171C122.672 71.9648 123.111 71.8123 123.579 71.7135C124.051 71.6104 124.522 71.5309 124.99 71.4751C125.6 71.3977 126.096 71.3376 126.479 71.2946C126.861 71.2517 127.149 71.1808 127.342 71.082C127.535 70.9832 127.654 70.8135 127.697 70.5729V70.5214C127.8 69.8898 127.716 69.398 127.445 69.0457C127.175 68.6891 126.691 68.5108 125.995 68.5108C125.274 68.5108 124.67 68.6698 124.185 68.9877C123.699 69.3056 123.34 69.645 123.108 70.0058L121.768 69.4903C122.12 68.8889 122.541 68.4206 123.031 68.0855C123.521 67.7461 124.034 67.5099 124.571 67.3767C125.108 67.2392 125.626 67.1705 126.124 67.1705C126.442 67.1705 126.801 67.2091 127.2 67.2865C127.6 67.3595 127.974 67.512 128.322 67.744C128.674 67.976 128.938 68.3261 129.114 68.7944C129.295 69.2626 129.32 69.8898 129.192 70.676L128.109 77.1974H126.588L126.82 75.857H126.743C126.605 76.0718 126.395 76.3016 126.111 76.5465C125.832 76.7914 125.478 76.9997 125.048 77.1716C124.623 77.3434 124.122 77.4293 123.547 77.4293ZM123.985 76.0632C124.586 76.0632 125.112 75.9451 125.564 75.7088C126.019 75.4725 126.384 75.1675 126.659 74.7937C126.938 74.42 127.112 74.0269 127.181 73.6145L127.413 72.2226C127.336 72.2999 127.183 72.3708 126.955 72.4352C126.728 72.4954 126.47 72.5491 126.182 72.5963C125.899 72.6393 125.622 72.678 125.351 72.7123C125.085 72.7424 124.87 72.7682 124.706 72.7897C124.303 72.8412 123.918 72.925 123.553 73.041C123.192 73.1527 122.887 73.3224 122.638 73.55C122.393 73.7734 122.241 74.0785 122.18 74.4651C122.09 74.9935 122.217 75.393 122.561 75.6637C122.904 75.93 123.379 76.0632 123.985 76.0632Z" fill="white"/>
</svg>
