<?xml version="1.0" ?>
<!-- Uploaded to: SVG Repo, www.svgrepo.com, Generator: SVG Repo Mixer Tools -->
<svg width="800px" height="800px" viewBox="0 0 64 64" id="Layer_1" version="1.1" xml:space="preserve" xmlns="http://www.w3.org/2000/svg" xmlns:xlink="http://www.w3.org/1999/xlink">
<style type="text/css">
	.st0{fill:#B4E6DD;}
	.st1{fill:#80D4C4;}
	.st2{fill:#D2F0EA;}
	.st3{fill:#FFFFFF;}
	.st4{fill:#FBD872;}
	.st5{fill:#DB7767;}
	.st6{fill:#F38E7A;}
	.st7{fill:#F6AF62;}
	.st8{fill:#32A48E;}
	.st9{fill:#A38FD8;}
	.st10{fill:#7C64BD;}
	.st11{fill:#EAA157;}
	.st12{fill:#9681CF;}
	.st13{fill:#F9C46A;}
	.st14{fill:#CE6B61;}
</style>
<g>
<path class="st0" d="M52,8H12c-2.21,0-4,1.79-4,4v40c0,2.21,1.79,4,4,4h40c2.21,0,4-1.79,4-4V12C56,9.79,54.21,8,52,8z"/>
<rect class="st1" height="40" width="40" x="12" y="12"/>
<g>
<rect class="st8" height="8.36" width="5.11" x="49.45" y="18.87"/>
<rect class="st8" height="8.36" width="5.11" x="49.45" y="36.78"/>
</g>
<path class="st3" d="M26.48,20.89c-6.12,0-11.11,4.98-11.11,11.11s4.98,11.11,11.11,11.11S37.58,38.12,37.58,32   S32.6,20.89,26.48,20.89z M34.44,30.5h-3.82c-0.45-1.23-1.41-2.19-2.64-2.64v-3.82C31.25,24.65,33.82,27.23,34.44,30.5z M25.06,32   c0-0.78,0.64-1.42,1.42-1.42S27.9,31.22,27.9,32s-0.64,1.42-1.42,1.42S25.06,32.78,25.06,32z M24.98,24.04v3.82   c-1.23,0.45-2.19,1.41-2.64,2.64h-3.82C19.13,27.23,21.71,24.65,24.98,24.04z M18.52,33.5h3.82c0.45,1.23,1.41,2.19,2.64,2.64v3.82   C21.71,39.35,19.13,36.77,18.52,33.5z M27.98,39.96v-3.82c1.23-0.45,2.19-1.41,2.64-2.64h3.82C33.82,36.77,31.25,39.35,27.98,39.96   z"/>
</g>
</svg>